<?xml version="1.0" encoding="UTF-8"?><svg height="16px" xmlns="http://www.w3.org/2000/svg" version="1.2" baseProfile="tiny" viewBox="0 0 16 16" width="16px"><rect x="8" y="3" width="1" height="1" fill="#fefe5c"/><rect fill="#fdd33c" x="7" y="11" width="1" height="1"/><rect height="1" x="7" fill="#ffa53a" y="12" width="1"/><rect fill="#fdf647" height="1" x="3" y="8" width="1"/><rect y="9" width="1" height="1" x="13" fill="#fac833"/><rect x="13" y="15" width="1" height="1" fill="#bb815b"/><rect width="1" height="1" fill="#fdf450"/><rect fill="#ffff46" x="1" y="2" width="2" height="1"/><g fill="#fefe4e"><rect x="7" y="2" width="1" height="1"/><rect width="1" height="1" x="3" y="4"/></g><rect width="1" height="1" fill="#eb9647" y="10"/><rect width="1" height="1" x="11" y="10" fill="#faf56b"/><rect y="12" width="1" height="1" x="12" fill="#fa903a"/><rect x="2" y="14" width="1" height="1" fill="#b6743e"/><rect height="1" x="11" width="1" fill="#fcfd4d"/><rect x="8" y="4" width="1" height="1" fill="#feff6f"/><rect y="6" width="1" height="1" fill="#fbfef7" x="8"/><rect fill="#fee548" x="15" y="7" width="1" height="1"/><rect width="1" height="1" fill="#fdff87" x="8" y="10"/><rect y="15" width="1" height="1" fill="#be8757" x="3"/><rect height="1" fill="#feff53" x="6" y="3" width="1"/><rect y="4" width="1" fill="#fdff5b" height="1" x="10"/><rect y="7" width="1" height="1" x="11" fill="#fcfdd3"/><rect x="12" y="7" width="1" height="1" fill="#faff61"/><rect y="8" fill="#fcc942" width="1" height="1" x="15"/><rect y="1" width="1" height="1" x="10" fill="#fefe48"/><rect y="6" width="1" height="1" fill="#fdff4e" x="12"/><rect fill="#f29238" x="2" y="11" width="1" height="1"/><rect y="1" width="1" height="1" x="3" fill="#fefd46"/><rect y="4" width="1" height="1" fill="#fdff5c" x="6"/><rect x="9" y="4" width="1" height="1" fill="#fcff62"/><rect x="9" y="8" width="1" height="1" fill="#fffeff"/><rect x="13" y="10" width="1" fill="#fda733" height="1"/><rect x="9" width="1" height="1" fill="#fdfe4c"/><rect width="1" fill="#fcfb46" height="1" x="13"/><rect y="10" width="1" fill="#fefe7c" height="1" x="10"/><rect fill="#ff9d38" y="12" width="1" height="1" x="10"/><g fill="#ffff48"><rect x="4" y="1" width="4" height="1"/><rect height="1" x="9" y="1" width="1"/><rect width="1" height="1" x="3" y="2"/><rect width="1" height="1" x="2" y="5"/></g><rect y="3" width="1" height="1" x="3" fill="#fefe4d"/><rect x="4" y="3" width="1" height="1" fill="#fdfe4e"/><rect y="9" width="1" height="1" fill="#faa93e"/><rect fill="#fcff86" x="7" y="10" width="1" height="1"/><rect x="1" y="6" fill="#fdfe3c" width="1" height="1"/><rect fill="#fefffe" x="7" y="8" width="2" height="1"/><rect y="11" fill="#fc923b" width="1" height="1" x="13"/><rect width="1" height="1" x="6" y="13" fill="#f68a36"/><rect fill="#fdfdfd" x="8" y="7" width="1" height="1"/><rect x="11" y="11" width="1" height="1" fill="#f9b638"/><rect width="1" height="1" fill="#d08a59" x="8" y="15"/><rect width="1" height="1" x="13" y="2" fill="#fcff49"/><rect width="1" height="1" fill="#fbef73" x="12" y="9"/><rect width="1" height="1" x="2" y="15" fill="#ba875d"/><rect fill="#c48957" height="1" x="4" y="15" width="1"/><rect width="1" height="1" x="10" y="11" fill="#fbc73b"/><rect fill="#f88d35" x="7" y="13" width="1" height="1"/><rect width="1" height="1" x="3" fill="#fdf94a"/><rect fill="#fcfa44" x="14" width="1" height="1"/><rect width="1" height="1" x="4" y="5" fill="#feff51"/><rect y="7" fill="#fefefc" width="1" height="1" x="9"/><rect height="1" fill="#fe9b3a" x="14" y="10" width="1"/><rect x="13" y="1" width="1" height="1" fill="#feff44"/><rect x="7" y="5" width="1" height="1" fill="#fcfea8"/><rect x="2" y="7" fill="#fcf43d" width="1" height="1"/><rect width="1" height="1" x="7" y="6" fill="#fcfef9"/><rect x="10" y="13" width="1" height="1" fill="#f18934"/><rect fill="#de7c3b" x="7" y="14" width="1" height="1"/><rect fill="#bb713b" x="13" y="14" width="1" height="1"/><rect x="5" width="1" height="1" fill="#fdfc4c"/><rect fill="#feff57" y="3" width="1" height="1" x="9"/><rect height="1" x="5" y="6" width="1" fill="#fefca7"/><rect fill="#fcfef5" x="9" y="6" width="1" height="1"/><rect width="1" height="1" x="1" y="15" fill="#b5855e"/><g fill="#ffff4c"><rect width="1" height="1" x="4" y="2"/><rect x="10" y="2" width="1" height="1"/><rect y="4" width="1" height="2" x="13"/></g><rect fill="#fffe4d" x="6" y="2" width="1" height="1"/><rect x="3" y="7" width="1" height="1" fill="#fdfe41"/><rect y="13" width="1" height="1" x="14" fill="#c67a3c"/><rect height="1" fill="#fcfe58" x="4" y="4" width="1"/><rect x="7" y="4" width="1" height="1" fill="#fdff6a"/><rect height="1" fill="#fda337" x="9" y="12" width="1"/><rect width="1" height="1" fill="#fffe48" x="11" y="1"/><rect y="3" width="1" height="1" fill="#fefe4a"/><rect height="1" fill="#ee8f37" x="3" y="12" width="1"/><rect x="1" y="5" width="1" height="1" fill="#feff42"/><rect x="9" y="5" width="1" height="1" fill="#fdfea0"/><rect height="1" fill="#fabf37" x="5" y="11" width="1"/><rect fill="#c88657" width="1" height="1" x="11" y="15"/><rect fill="#fefe50" x="15" y="2" width="1" height="1"/><rect width="1" height="2" fill="#ffff43" x="1" y="3"/><rect height="1" x="5" fill="#fdfcf6" y="7" width="1"/><rect x="1" y="8" width="1" height="1" fill="#fdc836"/><rect width="1" height="1" x="8" y="13" fill="#f88d37"/><rect height="1" fill="#fffe45" x="1" y="1" width="1"/><rect fill="#fbd937" x="2" y="8" width="1" height="1"/><rect y="12" width="1" height="1" x="14" fill="#df853f"/><rect x="14" y="9" width="1" height="1" fill="#fdb630"/><rect width="1" height="1" fill="#cb8848" y="12"/><rect width="1" height="1" x="2" y="12" fill="#df8a3b"/><rect fill="#ae7241" x="1" y="14" width="1" height="1"/><rect y="6" width="1" height="1" x="15" fill="#fefd4a"/><rect height="1" y="13" width="1" fill="#c07f48"/><rect x="2" y="1" width="1" height="1" fill="#fefd45"/><rect width="1" height="1" x="5" y="5" fill="#fefe6a"/><rect y="7" width="1" height="1" fill="#fde836" x="1"/><rect fill="#fbb833" width="1" height="1" x="3" y="10"/><rect x="4" y="10" width="1" height="1" fill="#f9e853"/><rect fill="#ca7d3a" x="2" y="13" width="1" height="1"/><rect width="1" height="1" fill="#fdfcdd" x="10" y="6"/><rect x="5" y="8" width="1" height="1" fill="#fafeff"/><rect height="1" fill="#fdfd7f" x="12" y="8" width="1"/><rect width="1" height="1" x="5" y="10" fill="#fdfc75"/><rect x="8" y="11" width="1" height="1" fill="#fcd43d"/><rect y="2" width="1" height="1" x="12" fill="#fcff4c"/><rect x="5" y="12" width="1" height="1" fill="#fd9c39"/><rect x="5" y="3" width="1" height="1" fill="#fdff53"/><rect y="10" width="1" height="1" fill="#fbff83" x="9"/><rect width="1" height="1" fill="#b07546" y="14"/><rect height="1" fill="#ae7243" x="15" y="14" width="1"/><rect width="1" height="1" fill="#c8885a" x="5" y="15"/><rect width="1" height="1" fill="#fefe4c" x="8" y="2"/><rect width="1" height="1" x="7" y="3" fill="#fefe59"/><g fill="#ffff53"><rect width="1" height="1" x="15" y="4"/><rect height="1" x="12" y="5" width="1"/></g><rect width="1" height="1" x="14" fill="#fdfd47" y="6"/><rect width="1" height="1" fill="#fdfeee" x="10" y="9"/><rect width="1" height="1" x="11" y="3" fill="#fffe51"/><rect width="1" height="1" x="13" y="7" fill="#fdfa3f"/><rect y="8" width="1" height="1" fill="#fec63c"/><rect fill="#fcfe80" y="10" width="1" height="1" x="6"/><rect width="1" height="1" x="9" y="2" fill="#ffff4d"/><rect height="1" x="13" y="8" width="1" fill="#fde639"/><rect y="9" width="1" height="1" x="4" fill="#faffa7"/><rect x="15" y="9" width="1" height="1" fill="#feaf3e"/><rect width="1" height="1" fill="#fd9e38" x="12" y="11"/><rect width="2" height="1" fill="#fcfc4c" x="6"/><rect x="11" y="5" width="1" height="1" fill="#fdfe62"/><rect y="6" width="1" height="1" fill="#fef944"/><rect width="1" fill="#ff4" height="1" x="2" y="6"/><rect y="10" width="1" height="1" x="15" fill="#fa9b46"/><rect height="1" fill="#fcf749" x="1" width="1"/><rect x="12" y="3" width="1" height="1" fill="#fefe4f"/><rect x="14" y="5" width="1" height="1" fill="#ffff4a"/><rect fill="#ee8837" x="5" y="13" width="1" height="1"/><rect height="1" fill="#fdf755" x="15" width="1"/><rect y="7" width="1" height="1" fill="#fedf41"/><rect y="10" width="1" height="1" fill="#f7c841" x="12"/><rect fill="#d88e49" y="11" width="1" height="1"/><rect y="11" width="1" height="1" fill="#fad03a" x="9"/><g fill="#ffff51"><rect x="15" y="3" width="1" height="1"/><rect width="1" height="1" x="15" y="5"/></g><rect y="6" width="1" height="1" fill="#fdfd86" x="11"/><rect width="1" height="1" x="4" y="8" fill="#fbffbd"/><rect height="1" fill="#fcffe6" x="11" y="9" width="1"/><rect height="1" fill="#de8738" x="4" y="13" width="1"/><rect x="7" y="7" width="1" height="1" fill="#fefefd"/><rect x="9" y="9" width="1" height="1" fill="#fefdf2"/><rect x="1" y="10" width="1" height="1" fill="#f59835"/><rect x="14" y="11" width="1" height="1" fill="#f18d3e"/><rect x="8" y="12" width="1" height="1" fill="#ffa538"/><rect width="1" height="1" fill="#d4884c" x="15" y="12"/><rect height="1" fill="#c27e48" x="15" y="13" width="1"/><g fill="#fffe4c"><rect y="2" width="1" height="1"/><rect x="3" y="5" width="1" height="1"/></g><rect height="1" fill="#fdfeab" x="8" y="5" width="1"/><rect height="1" fill="#fdfee9" x="5" y="9" width="1"/><rect x="4" y="12" width="1" height="1" fill="#f79535"/><rect height="1" fill="#ffa239" x="6" y="12" width="1"/><rect height="1" x="2" fill="#fdf649" width="1"/><rect x="1" y="11" width="1" fill="#e18d3a" height="1"/><rect fill="#ff5" x="10" y="3" width="1" height="1"/><rect height="1" x="6" y="9" width="1" fill="#fefeef"/><rect y="10" width="1" height="1" x="2" fill="#ff9f35"/><rect x="6" y="11" fill="#face37" width="1" height="1"/><rect height="1" x="6" y="15" fill="#cd8859" width="1"/><g fill="#fdfd4c"><rect x="4" width="1" height="1"/><rect width="1" height="1" x="10"/></g><rect width="1" height="1" x="14" y="8" fill="#fbd433"/><rect height="1" fill="#fbdf3c" x="3" y="9" width="1"/><rect height="1" fill="#ee8a3d" x="13" y="12" width="1"/><rect x="12" y="14" width="1" height="1" fill="#c77639"/><rect height="1" fill="#fc9a35" x="3" y="11" width="1"/><rect y="12" width="1" height="1" x="11" fill="#fe9538"/><rect y="15" width="1" height="1" fill="#b28b65" x="15"/><g fill="#feff49"><rect y="1" width="1" height="1"/><rect x="12" y="1" width="1" height="1"/><rect height="1" y="5" width="1"/></g><rect width="1" height="1" x="14" y="3" fill="#feff48"/><rect x="2" y="4" width="1" height="1" fill="#fffe49"/><rect x="11" y="4" width="1" height="1" fill="#fefd59"/><rect x="3" y="6" width="1" height="1" fill="#fdff46"/><rect width="1" height="1" x="8" fill="#ffff47" y="1"/><rect x="4" y="14" width="1" height="1" fill="#c9793a"/><rect width="1" fill="#c1845a" height="1" x="12" y="15"/><rect x="11" y="14" width="1" height="1" fill="#ce7b38"/><rect y="4" width="1" height="1" fill="#fdfe49"/><rect x="12" y="4" width="1" height="1" fill="#fffe53"/><rect x="3" y="13" width="1" height="1" fill="#d48236"/><rect height="1" x="3" y="14" width="1" fill="#c07639"/><rect x="8" y="14" width="1" height="1" fill="#dd7b3b"/><rect width="1" height="1" x="14" fill="#fdff45" y="2"/><rect x="4" y="6" width="1" height="1" fill="#fdfe58"/><rect y="14" width="1" height="1" fill="#d57d36" x="10"/><rect width="1" height="1" y="15" fill="#b28a65"/><g fill="#ffff49"><rect height="1" x="2" y="3" width="1"/><rect x="14" y="4" width="1" height="1"/></g><rect y="4" fill="#fdff5a" width="1" height="1" x="5"/><rect height="1" fill="#fefcff" x="10" y="7" width="1"/><rect x="1" y="12" width="1" height="1" fill="#d1843c"/><rect x="12" y="13" width="1" height="1" fill="#e18136"/><rect x="6" y="14" width="1" height="1" fill="#db7c3c"/><rect width="1" height="1" fill="#b26f3e" x="14" y="14"/><rect x="2" y="9" width="1" height="1" fill="#fdb930"/><rect x="4" y="11" width="1" height="1" fill="#fcac2f"/><rect x="15" y="11" width="1" height="1" fill="#e68e4a"/><rect x="10" y="15" width="1" height="1" fill="#d08757"/><rect width="1" height="1" x="12" fill="#fdfc4d"/><g fill="#feff4c"><rect x="15" y="1" width="1" height="1"/><rect x="13" y="3" width="1" height="1"/></g><rect x="6" y="5" width="1" height="1" fill="#fdfe91"/><rect height="1" fill="#feff47" x="13" y="6" width="1"/><rect fill="#d27a3c" x="5" y="14" width="1" height="1"/><rect height="1" x="5" y="2" width="1" fill="#fffe4e"/><rect height="1" x="14" y="7" fill="#fcef3e" width="1"/><rect x="11" y="8" width="1" height="1" fill="#fcfeff"/><rect width="1" height="1" x="14" y="15" fill="#b6815e"/><g fill="#fefdff"><rect x="6" y="7" width="1" height="2"/><rect x="10" y="8" width="1" height="1"/></g><rect height="1" x="1" y="9" fill="#fdad32" width="1"/><rect width="1" height="1" fill="#be7a3d" x="1" y="13"/><rect fill="#eb8635" height="1" x="11" y="13" width="1"/><rect fill="#d27e39" height="1" x="13" y="13" width="1"/><rect y="7" width="1" height="1" fill="#fefe8f" x="4"/><rect width="1" height="1" x="7" y="15" fill="#cf8958"/><rect width="1" height="1" fill="#feff40" x="14" y="1"/><rect height="1" fill="#fffe4b" x="11" y="2" width="1"/><rect width="1" height="1" x="10" fill="#fcfe81" y="5"/><rect height="1" x="6" y="6" width="1" fill="#fefded"/><rect x="7" y="9" width="2" height="1" fill="#fdfef2"/><rect width="1" fill="#f78c34" height="1" x="9" y="13"/><rect x="8" width="1" height="1" fill="#fcfd4c"/><rect x="9" y="14" width="1" height="1" fill="#dc7d36"/><rect width="1" height="1" fill="#d38a57" x="9" y="15"/></svg>